<?xml version="1.0" encoding="utf-8"?>
<!-- Generator: Adobe Illustrator 18.1.1, SVG Export Plug-In . SVG Version: 6.00 Build 0)  -->
<svg version="1.1" id="Layer_1" xmlns="http://www.w3.org/2000/svg" xmlns:xlink="http://www.w3.org/1999/xlink" x="0px" y="0px"
	 viewBox="229.3 271.3 334.2 68.7" enable-background="new 229.3 271.3 334.2 68.7" xml:space="preserve">
<g>
	<g>
		<g>
			<g>
				<polygon fill="#E55CFF" points="246.3,305.4 229.3,339.4 229.3,271.3 246.3,271.3 				"/>
				<polygon fill="#F6C6FF" points="246.3,339.4 229.3,339.4 263.4,271.3 263.4,305.4 				"/>
				<polygon fill="#E55CFF" points="280.4,305.4 263.4,339.4 263.4,271.3 280.4,271.3 				"/>
				<polygon fill="#F6C6FF" points="280.4,339.4 263.4,339.4 297.4,271.3 297.4,305.4 				"/>
				<rect x="297.4" y="271.3" fill="#E55CFF" width="17" height="68.1"/>
			</g>
		</g>
	</g>
	<g>
		<path fill="#E55CFF" d="M370.9,339.4l-12.5-31.6v31.6h-7.3V294h8.8l13.8,34.9l13.7-34.9h8.6v45.4h-7.4v-31.6l-12.2,31.6H370.9z"/>
		<path fill="#E55CFF" d="M407.5,301.2c-2.4,0-4.6-2-4.6-4.5c0-2.5,2.1-4.5,4.6-4.5c2.4,0,4.6,2,4.6,4.5
			C412.1,299.2,409.9,301.2,407.5,301.2z M411.2,339.4h-7.4v-32.8h7.4V339.4z"/>
		<path fill="#E55CFF" d="M435,322.3l12.3,17.2h-8.4l-8.1-11.6l-8.2,11.6h-7.9l12.2-16.9l-11.3-16h8.4l7.2,10.4l7.4-10.4h7.9
			L435,322.3z"/>
		<path fill="#E55CFF" d="M484.8,305.8c6.7,0,10.7,4.7,10.7,12.2v21.4H488v-20.2c0-4.1-1.8-6.7-5.4-6.7c-2.7,0-5.2,1.6-5.8,4.9v22
			h-7.4v-20.2c0-4.1-1.8-6.7-5.4-6.7c-2.7,0-5.2,1.6-5.8,4.9v22h-7.4v-32.8h7.4v2.7c1.6-2.1,4.5-3.5,8.2-3.5s7,1.8,8.7,4.4
			C477.3,307.5,480.4,305.8,484.8,305.8z"/>
		<path fill="#E55CFF" d="M520.5,339.4v-1.8c-1.1,1.1-4.4,2.4-8.1,2.4c-6.7,0-12.3-4-12.3-10.7c0-6.2,5.5-10.6,12.8-10.6
			c3,0,6.3,1,7.6,2V318c0-3.3-2.1-5.9-6.3-5.9c-3,0-4.8,1.3-5.6,3.6h-7.1c1-5.6,6.1-9.8,12.9-9.8c8.3,0,13.2,4.6,13.2,12.1v21.5
			H520.5z M520.5,328c-0.8-2.1-3.8-3.3-6.7-3.3c-3.3,0-6.8,1.4-6.8,4.7c0,3.3,3.5,4.7,6.8,4.7c3,0,5.9-1.3,6.7-3.3V328z"/>
		<path fill="#E55CFF" d="M551.2,322.3l12.3,17.2h-8.4l-8.1-11.6l-8.2,11.6h-7.9l12.2-16.9l-11.3-16h8.4l7.2,10.4l7.4-10.4h7.9
			L551.2,322.3z"/>
	</g>
</g>
</svg>
